<svg width="160" height="160" viewBox="0 0 160 160" xmlns="http://www.w3.org/2000/svg" aria-hidden="true">
  <path d="M18 96c6-18 16-27 30-27 10.8 0 18.2 5.6 22.8 16.8C75.2 97 82.6 103 93 103c10 0 17.4-6 22.8-18-6 18-16 27-30 27-10.8 0-18.2-5.6-22.8-16.8C58.8 87 51.4 81 41 81c-10 0-17.4 6-22.8 18Z" fill="#0F172A"/>
  <path d="M68 78c6-18 16-27 30-27 10.8 0 18.2 5.6 22.8 16.8C125.2 79 132.6 85 143 85c10 0 17.4-6 22.8-18-6 18-16 27-30 27-10.8 0-18.2-5.6-22.8-16.8C108.8 69 101.4 63 91 63c-10 0-17.4 6-22.8 18Z" fill="#0F172A" opacity="0.88"/>
</svg>

